<?xml version="1.0" ?><!DOCTYPE svg  PUBLIC '-//W3C//DTD SVG 1.1//EN'  'http://www.w3.org/Graphics/SVG/1.1/DTD/svg11.dtd'><svg height="135px" style="shape-rendering:geometricPrecision; text-rendering:geometricPrecision; image-rendering:optimizeQuality; fill-rule:evenodd; clip-rule:evenodd" version="1.1" viewBox="0 0 318757 317969" width="135px" xml:space="preserve" xmlns="http://www.w3.org/2000/svg" xmlns:xlink="http://www.w3.org/1999/xlink"><defs><style type="text/css">
   <![CDATA[
    .fil15 {fill:#2A5C2F}
    .fil14 {fill:#419149}
    .fil3 {fill:#475563}
    .fil6 {fill:#4DAB57}
    .fil0 {fill:#53B4ED}
    .fil7 {fill:#54BF5F}
    .fil4 {fill:#6B7D8F}
    .fil1 {fill:#77CBFC}
    .fil11 {fill:#826326}
    .fil9 {fill:#DBA61F}
    .fil5 {fill:#E1E3E8}
    .fil13 {fill:#FAB812}
    .fil8 {fill:#FFC42E}
    .fil12 {fill:#FFD445}
    .fil10 {fill:#FFE078}
    .fil2 {fill:white}
   ]]>
  </style></defs><g id="Layer_x0020_1"><g id="_644480240"><circle class="fil0" cx="159772" cy="158985" r="158985"/><circle class="fil1" cx="112846" cy="54517" r="24268"/><circle class="fil2" cx="112846" cy="54517" r="20003"/><path class="fil3" d="M1116 148885l82192 -44760 112959 73697 -192375 12544c-2032,-10146 -3104,-20638 -3104,-31381 0,-3394 119,-6759 328,-10100z"/><path class="fil4" d="M83308 104125l-8919 11435 -5590 8090 -7353 6030 -13973 1765 -2795 10443 -9119 3530 -17911 13553 -16609 9002c-166,-2975 -251,-5972 -251,-8988 0,-3394 119,-6759 328,-10100l82192 -44760z"/><path class="fil3" d="M108748 120723l99285 -68486 109317 85573c922,6928 1407,13994 1407,21175 0,3816 -143,7597 -408,11346 -36148,651 -89672,1756 -128693,3178l-80908 -52786z"/><polygon class="fil4" points="208033,52237 204263,70845 194408,82759 198821,98056 157667,152639 108748,120723 "/><g><path class="fil5" d="M248608 70388c2728,0 4941,2213 4941,4942 0,2729 -2213,4941 -4941,4941 -159,0 -317,-8 -472,-23l0 23 -11533 0 -11449 0c-3036,0 -5498,-2462 -5498,-5498 0,-3037 2462,-5499 5498,-5499 412,0 815,46 1201,133 310,-5391 4779,-9667 10248,-9667 5669,0 10265,4596 10265,10266 0,237 -9,473 -25,707 548,-210 1143,-325 1765,-325z"/><path class="fil2" d="M219673 74332c224,-2830 2593,-5058 5481,-5058 413,0 815,46 1201,133l0 -2c1531,765 2582,2346 2582,4173 0,2575 -2087,4663 -4662,4663 -2318,0 -4241,-1693 -4602,-3909z"/><path class="fil2" d="M226217 69378l138 29c310,-5391 4779,-9667 10248,-9667 1833,0 3554,481 5043,1323 1447,1600 2328,3721 2328,6049 0,4982 -4039,9022 -9022,9022 -4200,0 -7730,-2870 -8735,-6756z"/><path class="fil2" d="M248608 70388c1907,0 3560,1080 4384,2661 -97,2759 -2364,4966 -5147,4966 -1354,0 -2586,-522 -3506,-1377 1521,-1541 2484,-3632 2563,-5947 531,-196 1106,-303 1706,-303z"/></g><path class="fil6" d="M847 162415c49150,-10727 102782,-16630 158941,-16630 56159,0 109790,5903 158941,16630 -1826,86220 -72283,155554 -158941,155554 -86658,0 -157115,-69334 -158941,-155554z"/><path class="fil7" d="M847 162415c49150,-10727 102782,-16630 158941,-16630 56159,0 109790,5903 158941,16630 -10,473 -33,943 -47,1415 -49258,-10272 -102843,-15912 -158894,-15912 -56051,0 -109637,5640 -158894,15912 -14,-472 -37,-942 -47,-1415z"/><circle class="fil8" cx="112846" cy="54517" r="18395"/><g><path class="fil5" d="M106993 70961c5339,0 9667,4329 9667,9667 0,5339 -4328,9667 -9667,9667 -311,0 -619,-15 -923,-44l0 44 -22563 0 -22396 0c-5941,0 -10756,-4816 -10756,-10756 0,-5941 4815,-10756 10756,-10756 807,0 1593,90 2349,259 607,-10546 9350,-18911 20047,-18911 11091,0 20083,8991 20083,20082 0,465 -18,927 -49,1384 1072,-410 2235,-636 3452,-636z"/><path class="fil2" d="M50389 78678c438,-5538 5071,-9895 10722,-9895 807,0 1593,90 2349,259l0 -3c2994,1496 5051,4589 5051,8164 0,5037 -4084,9121 -9121,9121 -4535,0 -8296,-3311 -9001,-7646z"/><path class="fil2" d="M63190 68985l270 57c607,-10546 9350,-18911 20047,-18911 3587,0 6953,941 9868,2588 2830,3130 4554,7280 4554,11832 0,9748 -7903,17651 -17650,17651 -8216,0 -15122,-5616 -17089,-13217z"/><path class="fil2" d="M106993 70961c3730,0 6965,2113 8578,5206 -191,5398 -4626,9716 -10070,9716 -2649,0 -5059,-1023 -6858,-2695 2974,-3013 4858,-7105 5012,-11634 1041,-383 2165,-593 3338,-593z"/></g><g><polygon class="fil9" points="105688,116748 209906,109992 138158,224810 37687,224810 "/><polygon class="fil10" points="105689,116748 209906,109992 208480,112275 104780,118193 "/><polygon class="fil8" points="108002,122730 49254,216847 143048,216975 205566,116933 "/><polygon class="fil9" points="209906,109992 138158,224810 281654,224810 "/><polygon class="fil11" points="209906,119922 149525,216549 270287,216549 "/><path class="fil12" d="M209906 119922l-60380 96627c22809,-6129 46723,-20057 60380,-53885l0 -42742z"/><path class="fil13" d="M209906 119922l0 42742c13656,33828 37571,47756 60380,53885l-60380 -96627z"/><path class="fil2" d="M208695 162436l2634 0 1833 9150c1557,7772 -7824,7609 -6300,0l1833 -9150zm1320 8990c1024,0 1853,930 1853,2077 0,1147 -829,2078 -1853,2078 -1023,0 -1853,-931 -1853,-2078 0,-1147 830,-2077 1853,-2077z"/><path class="fil14" d="M37687 224810l243966 0 5522 2618c-95456,2109 -155422,6480 -249488,-2618z"/></g><g><ellipse class="fil14" cx="297127" cy="175065" rx="15448" ry="2368"/><ellipse class="fil14" cx="31180" cy="178840" rx="24180" ry="3707"/></g><g><polygon class="fil15" points="70274,74658 35137,36624 0,74658 17263,74658 0,93343 17263,93343 0,112030 17263,112030 0,130716 17263,130716 0,149401 29056,149401 29056,177741 41220,177741 41220,149401 70274,149401 53012,130716 70274,130716 53012,112030 70274,112030 53012,93343 70274,93343 53012,74658 "/><path class="fil7" d="M70274 74658l-35137 -38034 -3115 3372 32021 34662 6231 0zm-32133 103083l3079 0 0 -28259 -3079 0 0 28259zm25902 -28340l6231 0 -17188 -18604 -6231 0 17188 18604zm0 -18685l6231 0 -17188 -18605 -6231 0 17188 18605zm0 -18686l6231 0 -17188 -18605 -6231 0 17188 18605zm0 -18687l6231 0 -17188 -18604 -6231 0 17188 18604z"/><polygon class="fil15" points="279930,134667 293365,120125 306799,134667 300199,134667 306799,141812 300199,141812 306799,148956 300199,148956 306799,156100 300199,156100 306799,163245 295690,163245 295690,174080 291039,174080 291039,163245 279930,163245 286530,156100 279930,156100 286530,148956 279930,148956 286530,141812 279930,141812 286530,134667 "/><path class="fil7" d="M279930 134667l13435 -14542 1190 1290 -12242 13252 -2383 0zm12286 39413l-1177 0 0 -10804 1177 0 0 10804zm-9903 -10835l-2383 0 6572 -7114 2382 0 -6571 7114zm0 -7145l-2383 0 6572 -7113 2382 0 -6571 7113zm0 -7144l-2383 0 6572 -7113 2382 0 -6571 7113zm0 -7144l-2383 0 6572 -7114 2382 0 -6571 7114z"/></g></g></g></svg>