<?xml version="1.0" ?><!DOCTYPE svg  PUBLIC '-//W3C//DTD SVG 1.1//EN'  'http://www.w3.org/Graphics/SVG/1.1/DTD/svg11.dtd'><svg height="135px" style="shape-rendering:geometricPrecision; text-rendering:geometricPrecision; image-rendering:optimizeQuality; fill-rule:evenodd; clip-rule:evenodd" version="1.1" viewBox="0 0 62223 61159" width="137px" xml:space="preserve" xmlns="http://www.w3.org/2000/svg" xmlns:xlink="http://www.w3.org/1999/xlink"><defs><style type="text/css">
   <![CDATA[
    .fil15 {fill:#2A5C2F}
    .fil5 {fill:#314252}
    .fil7 {fill:#32404F}
    .fil14 {fill:#33414F}
    .fil2 {fill:#374C61}
    .fil0 {fill:#385878}
    .fil8 {fill:#3D6287}
    .fil4 {fill:#475563}
    .fil12 {fill:#4DAB57}
    .fil6 {fill:#51677D}
    .fil9 {fill:#557CA3}
    .fil16 {fill:#55BD60}
    .fil11 {fill:#5D88B3}
    .fil31 {fill:#697887}
    .fil3 {fill:#6B7D8F}
    .fil13 {fill:#72CF7B}
    .fil18 {fill:#738DA6}
    .fil1 {fill:#B9C3DE}
    .fil23 {fill:#D5D8E0}
    .fil24 {fill:#E1E4E8}
    .fil25 {fill:#ECF0F1}
    .fil29 {fill:#F53F55}
    .fil26 {fill:#FAB812}
    .fil21 {fill:#FF576B}
    .fil22 {fill:#FF8795}
    .fil17 {fill:#FFC42E}
    .fil27 {fill:#FFD445}
    .fil30 {fill:#FFE078}
    .fil28 {fill:#FFEE8F}
    .fil10 {fill:white}
    .fil20 {fill:#FF576B;fill-rule:nonzero}
    .fil19 {fill:#FFE078;fill-rule:nonzero}
   ]]>
  </style></defs><g id="Layer_x0020_1"><g id="_644500952"><circle class="fil0" cx="31644" cy="30580" r="30580"/><path class="fil1" d="M28728 2599c308,0 557,249 557,557 0,308 -249,558 -557,558 -308,0 -557,-250 -557,-558 0,-308 249,-557 557,-557zm31827 24582c102,0 184,82 184,183 0,102 -82,184 -184,184 -101,0 -184,-82 -184,-184 0,-101 83,-183 184,-183zm-7002 -6083c141,0 255,114 255,255 0,140 -114,254 -255,254 -140,0 -254,-114 -254,-254 0,-141 114,-255 254,-255zm-4788 4724c51,0 92,42 92,92 0,51 -41,92 -92,92 -51,0 -92,-41 -92,-92 0,-50 41,-92 92,-92zm-2858 -1697c47,0 85,38 85,85 0,46 -38,84 -85,84 -47,0 -84,-38 -84,-84 0,-47 37,-85 84,-85zm-33652 -14541c149,0 269,120 269,269 0,148 -120,269 -269,269 -148,0 -269,-121 -269,-269 0,-149 121,-269 269,-269zm3932 -3734c165,0 298,133 298,297 0,164 -133,297 -298,297 -164,0 -297,-133 -297,-297 0,-164 133,-297 297,-297zm-1202 14909c234,0 424,190 424,424 0,234 -190,424 -424,424 -235,0 -425,-190 -425,-424 0,-234 190,-424 425,-424zm2220 2786c117,0 212,95 212,212 0,117 -95,212 -212,212 -117,0 -212,-95 -212,-212 0,-117 95,-212 212,-212zm4039 -2560c90,0 162,73 162,163 0,89 -72,162 -162,162 -90,0 -163,-73 -163,-162 0,-90 73,-163 163,-163zm6175 -651c132,0 240,108 240,241 0,133 -108,240 -240,240 -133,0 -241,-107 -241,-240 0,-133 108,-241 241,-241zm4965 57c125,0 226,101 226,226 0,125 -101,227 -226,227 -125,0 -227,-102 -227,-227 0,-125 102,-226 227,-226zm25184 1103c125,0 227,101 227,226 0,125 -102,227 -227,227 -125,0 -226,-102 -226,-227 0,-125 101,-226 226,-226zm-7298 1584c156,0 283,127 283,283 0,157 -127,283 -283,283 -157,0 -283,-126 -283,-283 0,-156 126,-283 283,-283zm2121 -13551c86,0 156,70 156,156 0,86 -70,155 -156,155 -86,0 -155,-69 -155,-155 0,-86 69,-156 155,-156zm-3480 849c156,0 283,127 283,283 0,156 -127,283 -283,283 -156,0 -283,-127 -283,-283 0,-156 127,-283 283,-283zm-3989 8968c172,0 311,139 311,311 0,172 -139,311 -311,311 -172,0 -311,-139 -311,-311 0,-172 139,-311 311,-311zm-6238 -1047c196,0 354,159 354,354 0,195 -158,354 -354,354 -195,0 -353,-159 -353,-354 0,-195 158,-354 353,-354zm-8330 -1386c250,0 452,203 452,453 0,250 -202,452 -452,452 -250,0 -453,-202 -453,-452 0,-250 203,-453 453,-453zm-4564 -1291c270,0 488,218 488,487 0,270 -218,488 -488,488 -269,0 -487,-218 -487,-488 0,-269 218,-487 487,-487zm-2445 -10820c205,0 371,166 371,372 0,205 -166,371 -371,371 -205,0 -372,-166 -372,-371 0,-206 167,-372 372,-372zm-3384 6917c77,0 140,62 140,140 0,77 -63,139 -140,139 -77,0 -139,-62 -139,-139 0,-78 62,-140 139,-140zm16407 5622c141,0 256,115 256,256 0,141 -115,255 -256,255 -141,0 -255,-114 -255,-255 0,-141 114,-256 255,-256zm6011 -4325c231,0 418,188 418,419 0,230 -187,417 -418,417 -230,0 -418,-187 -418,-417 0,-231 188,-419 418,-419zm-4209 -4641c205,0 371,166 371,371 0,205 -166,372 -371,372 -205,0 -372,-167 -372,-372 0,-205 167,-371 372,-371zm-4016 4397c192,0 348,156 348,349 0,192 -156,348 -348,348 -193,0 -348,-156 -348,-348 0,-193 155,-349 348,-349zm-2838 -30c218,0 395,177 395,395 0,218 -177,395 -395,395 -218,0 -395,-177 -395,-395 0,-218 177,-395 395,-395zm7109 -8083c142,0 256,114 256,255 0,141 -114,256 -256,256 -141,0 -255,-115 -255,-256 0,-141 114,-255 255,-255zm7694 8961c218,0 394,177 394,395 0,218 -176,395 -394,395 -218,0 -395,-177 -395,-395 0,-218 177,-395 395,-395zm784 -5013c128,0 232,104 232,232 0,128 -104,233 -232,233 -128,0 -232,-105 -232,-233 0,-128 104,-232 232,-232zm4575 5017c218,0 395,176 395,394 0,218 -177,395 -395,395 -218,0 -395,-177 -395,-395 0,-218 177,-394 395,-394zm-8268 -8919c321,0 581,260 581,581 0,320 -260,580 -581,580 -321,0 -581,-260 -581,-580 0,-321 260,-581 581,-581zm-15840 3902c218,0 395,177 395,395 0,218 -177,395 -395,395 -218,0 -395,-177 -395,-395 0,-218 177,-395 395,-395zm15334 1994c385,0 697,312 697,697 0,384 -312,696 -697,696 -385,0 -696,-312 -696,-696 0,-385 311,-697 696,-697zm-6950 -7452c308,0 557,249 557,557 0,308 -249,558 -557,558 -308,0 -557,-250 -557,-558 0,-308 249,-557 557,-557zm-2892 3747c250,0 453,203 453,453 0,250 -203,453 -453,453 -250,0 -453,-203 -453,-453 0,-250 203,-453 453,-453z"/><g><path class="fil2" d="M1127 28637l15809 -8609 21727 14175 -37002 2413c-391,-1952 -597,-3970 -597,-6036 0,-653 23,-1300 63,-1943z"/><path class="fil2" d="M21829 23220l19097 -13173 21027 16460c177,1332 270,2692 270,4073 0,734 -27,1461 -78,2182 -6953,125 -17248,338 -24754,611l-15562 -10153z"/></g><path class="fil3" d="M16936 20028l-1715 2199 -1076 1556 -1414 1160 -2688 340 -537 2008 -1754 679 -3445 2607 -3195 1731c-32,-572 -48,-1148 -48,-1728 0,-653 23,-1300 63,-1943l15809 -8609z"/><polygon class="fil3" points="40926,10047 40201,13627 38306,15918 39154,18861 31239,29359 21829,23220 "/><path class="fil4" d="M1072 31240c9454,-2064 19770,-3199 30572,-3199 10801,0 21117,1135 30571,3199 -351,16583 -13903,29919 -30571,29919 -16669,0 -30221,-13336 -30572,-29919z"/><ellipse class="fil5" cx="24615" cy="53506" rx="9082" ry="883"/><path class="fil6" d="M1072 31240c9454,-2064 19770,-3199 30572,-3199 10801,0 21117,1135 30571,3199 -2,91 -7,181 -9,272 -9475,-1976 -19781,-3061 -30562,-3061 -10781,0 -21088,1085 -30563,3061 -2,-91 -7,-181 -9,-272z"/><ellipse class="fil7" cx="57648" cy="33673" rx="2971" ry="456"/><circle class="fil8" cx="23846" cy="10851" r="5433"/><circle class="fil9" cx="23846" cy="10851" r="4282"/><path class="fil10" d="M23869 7236c316,0 623,39 916,111 -1504,271 -2645,1586 -2645,3168 0,1778 1441,3219 3218,3219 550,0 1067,-138 1520,-381 -695,900 -1784,1480 -3009,1480 -2098,0 -3799,-1701 -3799,-3798 0,-2098 1701,-3799 3799,-3799z"/><g><path class="fil9" d="M22048 14978c1027,0 1859,833 1859,1860 0,1027 -832,1859 -1859,1859 -60,0 -119,-3 -178,-8l0 8 -4340 0 -4307 0c-1143,0 -2069,-926 -2069,-2069 0,-1142 926,-2069 2069,-2069 155,0 306,18 452,50 116,-2028 1798,-3637 3855,-3637 2134,0 3863,1729 3863,3862 0,90 -3,179 -9,267 206,-79 430,-123 664,-123z"/><path class="fil11" d="M11160 16463c85,-1066 976,-1904 2063,-1904 155,0 306,18 452,50l0 0c575,287 971,882 971,1570 0,969 -785,1754 -1754,1754 -873,0 -1596,-637 -1732,-1470z"/><path class="fil11" d="M13623 14598l52 11c116,-2028 1798,-3637 3855,-3637 690,0 1338,181 1898,498 545,602 876,1400 876,2275 0,1875 -1520,3395 -3395,3395 -1580,0 -2908,-1080 -3286,-2542z"/><path class="fil11" d="M22048 14978c717,0 1340,407 1650,1002 -37,1038 -890,1868 -1937,1868 -510,0 -973,-196 -1319,-518 572,-580 934,-1366 964,-2238 200,-73 416,-114 642,-114z"/></g><g><path class="fil9" d="M50420 12652c525,0 951,426 951,951 0,525 -426,950 -951,950 -30,0 -60,-1 -90,-4l0 4 -2219 0 -2202 0c-584,0 -1057,-473 -1057,-1057 0,-584 473,-1058 1057,-1058 80,0 157,9 231,26 60,-1037 920,-1860 1971,-1860 1091,0 1975,884 1975,1975 0,45 -2,91 -5,136 105,-40 220,-63 339,-63z"/><path class="fil11" d="M44855 13411c43,-544 499,-973 1054,-973 80,0 157,9 231,26l0 -1c295,147 497,452 497,803 0,495 -402,897 -897,897 -446,0 -816,-326 -885,-752z"/><path class="fil11" d="M46114 12458l26 6c60,-1037 920,-1860 1971,-1860 353,0 684,93 970,255 279,307 448,716 448,1163 0,959 -777,1736 -1735,1736 -808,0 -1487,-553 -1680,-1300z"/><path class="fil11" d="M50420 12652c367,0 685,208 844,512 -19,531 -455,955 -990,955 -261,0 -498,-100 -675,-264 293,-297 478,-699 493,-1144 103,-38 213,-59 328,-59z"/></g><polygon class="fil12" points="21238,22456 41283,21156 27483,43241 8158,43241 "/><polygon class="fil13" points="21238,22456 41283,21156 41009,21595 21063,22734 "/><ellipse class="fil14" cx="6495" cy="34399" rx="4651" ry="713"/><polygon class="fil13" points="21683,23606 10383,41709 28424,41734 40449,22491 "/><polygon class="fil12" points="41283,21156 27483,43241 55084,43241 "/><polygon class="fil15" points="41283,23066 29670,41652 52897,41652 "/><path class="fil13" d="M41283 23066l-11613 18586c4387,-1179 8987,-3858 11613,-10365l0 -8221z"/><path class="fil16" d="M41283 23066l0 8221c2627,6507 7227,9186 11614,10365l-11614 -18586z"/><path class="fil17" d="M41050 31244l507 0 353 1760c299,1494 -1505,1463 -1212,0l352 -1760zm254 1729c197,0 357,179 357,399 0,221 -160,400 -357,400 -196,0 -356,-179 -356,-400 0,-220 160,-399 356,-399z"/><path class="fil14" d="M8158 43241l46926 0 1062 503c-18361,406 -29895,1247 -47988,-503z"/><polygon class="fil7" points="13517,14360 6758,7044 0,14360 3320,14360 0,17954 3320,17954 0,21548 3320,21548 0,25142 3320,25142 0,28736 5589,28736 5589,34187 7928,34187 7928,28736 13517,28736 10196,25142 13517,25142 10196,21548 13517,21548 10196,17954 13517,17954 10196,14360 "/><path class="fil18" d="M13517 14360l-6759 -7316 -599 649 6159 6667 1199 0zm-6181 19827l592 0 0 -5435 -592 0 0 5435zm4982 -5451l1199 0 -3306 -3578 -1199 0 3306 3578zm0 -3594l1199 0 -3306 -3578 -1199 0 3306 3578zm0 -3594l1199 0 -3306 -3578 -1199 0 3306 3578zm0 -3594l1199 0 -3306 -3578 -1199 0 3306 3578z"/><polygon class="fil7" points="53843,25902 56427,23105 59011,25902 57741,25902 59011,27277 57741,27277 59011,28651 57741,28651 59011,30025 57741,30025 59011,31399 56874,31399 56874,33483 55980,33483 55980,31399 53843,31399 55112,30025 53843,30025 55112,28651 53843,28651 55112,27277 53843,27277 55112,25902 "/><path class="fil18" d="M53843 25902l2584 -2797 229 248 -2355 2549 -458 0zm2363 7581l-226 0 0 -2078 226 0 0 2078zm-1905 -2084l-458 0 1264 -1368 458 0 -1264 1368zm0 -1374l-458 0 1264 -1368 458 0 -1264 1368zm0 -1374l-458 0 1264 -1368 458 0 -1264 1368zm0 -1374l-458 0 1264 -1369 458 0 -1264 1369z"/><g><path class="fil19" d="M27220 32541l-577 3653c-59,375 -220,720 -465,965l0 0c-231,230 -533,373 -894,373l-4310 0c-360,0 -662,-143 -893,-373l0 0 -1 -1c-245,-245 -406,-590 -465,-964l-576 -3653c-235,-1488 546,-2524 1713,-3098 707,-349 1558,-525 2406,-527 849,-2 1697,171 2398,520 1143,570 1901,1602 1664,3105zm-875 3607l576 -3653c213,-1348 -470,-2274 -1500,-2787 -660,-329 -1460,-492 -2263,-490 -803,2 -1606,168 -2272,496 -1053,518 -1759,1449 -1548,2781l576 3653c49,312 181,597 380,797l1 0c175,176 405,284 679,284l4310 0c275,0 505,-108 680,-284l0 0c200,-200 332,-485 381,-797z"/><path class="fil20" d="M20578 29242c1636,-561 3461,-580 5105,-40l-272 682c-1474,-451 -3095,-434 -4562,38l-271 -680z"/><path class="fil21" d="M21488 36372l3284 0c306,0 556,191 556,425l0 843 -4396 0 0 -843c0,-234 250,-425 556,-425z"/><path class="fil22" d="M21489 36372l3283 0c306,0 556,191 556,425l0 173c0,-234 -250,-426 -556,-426l-3283 0c-307,0 -557,192 -557,426l0 -173c0,-234 250,-425 557,-425z"/><path class="fil23" d="M20671 37640l4918 0c630,0 1093,517 1145,1145l753 9154c51,627 -515,1646 -1145,1646l-6424 0c-629,0 -1196,-1019 -1144,-1646l753 -9154c51,-628 515,-1145 1144,-1145z"/><path class="fil24" d="M20671 37640l4660 0c443,134 751,556 791,1050l720 8749c49,600 -493,1574 -1094,1574l-6140 0c-280,0 -548,-212 -748,-498 -68,-202 -100,-404 -86,-576l753 -9154c51,-628 515,-1145 1144,-1145z"/><path class="fil25" d="M20671 37640l110 0c-458,161 -771,590 -815,1087l-800 9235c-50,574 296,943 719,1051l-187 0c-361,0 -700,-348 -905,-757 -20,-112 -27,-219 -19,-317l753 -9154c51,-628 515,-1145 1144,-1145z"/><path class="fil21" d="M20410 50007l5440 0c645,0 1172,527 1172,1172l0 1171 -7784 0 0 -1171c0,-645 528,-1172 1172,-1172z"/><path class="fil22" d="M20410 50007l5440 0c645,0 1172,527 1172,1172l0 361c0,-645 -527,-1172 -1172,-1172l-5440 0c-644,0 -1172,527 -1172,1172l0 -361c0,-645 528,-1172 1172,-1172z"/><polygon class="fil24" points="20222,49585 26039,49585 26039,50007 20222,50007 "/><path class="fil21" d="M18870 52350l8520 0c383,0 697,314 697,697l0 697 -9913 0 0 -697c0,-383 313,-697 696,-697z"/><path class="fil22" d="M18870 52350l8520 0c383,0 697,314 697,697l0 245 -1 0c-9,-375 -319,-678 -696,-678l-8520 0c-377,0 -686,303 -696,678l0 0 0 -245c0,-383 313,-697 696,-697z"/><polygon class="fil21" points="22088,36372 24173,36372 24173,36098 22088,36098 "/><path class="fil22" d="M22081 35690l2099 0c112,0 204,92 204,204l0 204 -2507 0 0 -204c0,-112 92,-204 204,-204z"/><g><path class="fil26" d="M23130 43596c-1030,639 -2591,3359 0,4065 2592,-706 1030,-3426 0,-4065z"/><path class="fil27" d="M23130 44477c-680,501 -1711,2631 0,3184 1712,-553 680,-2683 0,-3184z"/><path class="fil28" d="M23130 45744c-409,302 -1030,1584 0,1917 1031,-333 410,-1615 0,-1917z"/></g><path class="fil29" d="M23205 50619c376,0 681,305 681,682 0,376 -305,681 -681,681 -376,0 -681,-305 -681,-681 0,-377 305,-682 681,-682z"/><path class="fil30" d="M23130 50732c247,0 447,200 447,447 0,246 -200,446 -447,446 -246,0 -446,-200 -446,-446 0,-247 200,-447 446,-447z"/><path class="fil4" d="M22250 48120l1761 0c203,0 369,166 369,369l0 524 -2499 0 0 -524c0,-203 166,-369 369,-369z"/><polygon class="fil4" points="22829,47593 23431,47593 23431,48120 22829,48120 "/><polygon class="fil29" points="18174,53744 28087,53744 28087,53416 18174,53416 "/><path class="fil31" d="M22250 48305l1761 0c203,0 369,166 369,369l0 -185c0,-203 -166,-369 -369,-369l-580 0 -602 0 -579 0c-203,0 -369,166 -369,369l0 185c0,-203 166,-369 369,-369z"/><path class="fil22" d="M25621 29358l62 -156c-1644,-540 -3469,-521 -5105,40l62 156c1321,-469 2761,-575 4127,-259 288,57 574,130 854,219z"/></g></g></g></svg>